<svg width="123" height="24" viewBox="0 0 123 24" fill="none" xmlns="http://www.w3.org/2000/svg">
<path d="M10.656 18H8.416L3.344 10.336V18H1.104V6.81597H3.344L8.416 14.496V6.81597H10.656V18ZM24.1096 13.376C24.1096 13.696 24.0883 13.984 24.0456 14.24H17.5656C17.619 14.88 17.843 15.3813 18.2376 15.744C18.6323 16.1066 19.1176 16.288 19.6936 16.288C20.5256 16.288 21.1176 15.9306 21.4696 15.216H23.8856C23.6296 16.0693 23.139 16.7733 22.4136 17.328C21.6883 17.872 20.7976 18.144 19.7416 18.144C18.8883 18.144 18.1203 17.9573 17.4376 17.584C16.7656 17.2 16.2376 16.6613 15.8536 15.968C15.4803 15.2746 15.2936 14.4746 15.2936 13.568C15.2936 12.6506 15.4803 11.8453 15.8536 11.152C16.227 10.4586 16.7496 9.9253 17.4216 9.55197C18.0936 9.17864 18.867 8.99197 19.7416 8.99197C20.5843 8.99197 21.3363 9.1733 21.9976 9.53597C22.6696 9.89864 23.187 10.416 23.5496 11.088C23.923 11.7493 24.1096 12.512 24.1096 13.376ZM21.7896 12.736C21.779 12.16 21.571 11.7013 21.1656 11.36C20.7603 11.008 20.2643 10.832 19.6776 10.832C19.123 10.832 18.6536 11.0026 18.2696 11.344C17.8963 11.6746 17.667 12.1386 17.5816 12.736H21.7896ZM41.0326 9.13597L38.4406 18H36.0246L34.4086 11.808L32.7926 18H30.3606L27.7526 9.13597H30.0246L31.5926 15.888L33.2886 9.13597H35.6566L37.3206 15.872L38.8886 9.13597H41.0326ZM58.9051 15.872H54.4571L53.7211 18H51.3691L55.3851 6.81597H57.9931L62.0091 18H59.6411L58.9051 15.872ZM58.2971 14.08L56.6811 9.40797L55.0651 14.08H58.2971ZM68.7503 10.512C69.0383 10.0426 69.4116 9.67464 69.8703 9.40797C70.3396 9.1413 70.8729 9.00797 71.4703 9.00797V11.36H70.8783C70.1743 11.36 69.6409 11.5253 69.2783 11.856C68.9263 12.1866 68.7503 12.7626 68.7503 13.584V18H66.5103V9.13597H68.7503V10.512ZM78.219 10.512C78.507 10.0426 78.8803 9.67464 79.339 9.40797C79.8083 9.1413 80.3417 9.00797 80.939 9.00797V11.36H80.347C79.643 11.36 79.1097 11.5253 78.747 11.856C78.395 12.1866 78.219 12.7626 78.219 13.584V18H75.979V9.13597H78.219V10.512ZM86.5838 8.07997C86.1891 8.07997 85.8584 7.9573 85.5918 7.71197C85.3358 7.45597 85.2078 7.1413 85.2078 6.76797C85.2078 6.39464 85.3358 6.0853 85.5918 5.83997C85.8584 5.58397 86.1891 5.45597 86.5838 5.45597C86.9784 5.45597 87.3038 5.58397 87.5598 5.83997C87.8264 6.0853 87.9598 6.39464 87.9598 6.76797C87.9598 7.1413 87.8264 7.45597 87.5598 7.71197C87.3038 7.9573 86.9784 8.07997 86.5838 8.07997ZM87.6878 9.13597V18H85.4478V9.13597H87.6878ZM96.5969 15.936L98.8369 9.13597H101.221L97.9409 18H95.2209L91.9569 9.13597H94.3569L96.5969 15.936ZM104.903 13.536C104.903 12.64 105.079 11.8453 105.431 11.152C105.794 10.4586 106.279 9.9253 106.887 9.55197C107.506 9.17864 108.194 8.99197 108.951 8.99197C109.612 8.99197 110.188 9.1253 110.679 9.39197C111.18 9.65864 111.58 9.99464 111.879 10.4V9.13597H114.135V18H111.879V16.704C111.591 17.12 111.191 17.4666 110.679 17.744C110.178 18.0106 109.596 18.144 108.935 18.144C108.188 18.144 107.506 17.952 106.887 17.568C106.279 17.184 105.794 16.6453 105.431 15.952C105.079 15.248 104.903 14.4426 104.903 13.536ZM111.879 13.568C111.879 13.024 111.772 12.56 111.559 12.176C111.346 11.7813 111.058 11.4826 110.695 11.28C110.332 11.0666 109.943 10.96 109.527 10.96C109.111 10.96 108.727 11.0613 108.375 11.264C108.023 11.4666 107.735 11.7653 107.511 12.16C107.298 12.544 107.191 13.0026 107.191 13.536C107.191 14.0693 107.298 14.5386 107.511 14.944C107.735 15.3386 108.023 15.6426 108.375 15.856C108.738 16.0693 109.122 16.176 109.527 16.176C109.943 16.176 110.332 16.0746 110.695 15.872C111.058 15.6586 111.346 15.36 111.559 14.976C111.772 14.5813 111.879 14.112 111.879 13.568ZM121.563 6.15997V18H119.323V6.15997H121.563Z" fill="#333333"/>
</svg>
